<svg id="Слой_1" data-name="Слой 1" xmlns="http://www.w3.org/2000/svg" viewBox="0 0 1200 960">
  <title>logo</title>
  <g>
    <rect width="1200" height="960" rx="80" style="fill: #fff"/>
    <g id="Логотип">
      <path d="M499.77,429.55H230.7a28.83,28.83,0,0,0-28.83,28.83V612.13A28.83,28.83,0,0,0,230.7,641H499.77a28.82,28.82,0,0,0,28.82-28.83V458.38A28.82,28.82,0,0,0,499.77,429.55Zm1,182.58h-270V458.38h270Z" transform="translate(0 0)" style="fill: #c2292d"/>
      <path d="M1051.17,429.55H782.1a28.83,28.83,0,0,0-28.83,28.83V612.13A28.83,28.83,0,0,0,782.1,641h269.07A28.83,28.83,0,0,0,1080,612.13V458.38A28.83,28.83,0,0,0,1051.17,429.55Zm1,182.58h-270V549.67h270Zm0-91.29h-270V458.38h270Z" transform="translate(0 0)" style="fill: #c2292d"/>
      <rect x="120" y="429.55" width="28.83" height="211.41" style="fill: #c2292d"/>
      <rect x="581.63" y="429.55" width="28.83" height="211.41" style="fill: #c2292d"/>
      <rect x="667.45" y="612.13" width="28.83" height="28.83" style="fill: #c2292d"/>
      <path d="M1060.78,690H935.86a19.21,19.21,0,0,0-19.22,19.22v48a19.22,19.22,0,0,0,19.22,19.22h124.92A19.22,19.22,0,0,0,1080,757.24v-48A19.21,19.21,0,0,0,1060.78,690Zm-12.49,65.35H948.35V711.11h99.94ZM880.85,690v67.27a19.23,19.23,0,0,1-19.22,19.22H736.7a19.23,19.23,0,0,1-19.22-19.22V690h31.71v65.35h99.94V690ZM681.69,799.52H652.86V770.69h28.83Zm0-90.33v67.27H537.55a19.22,19.22,0,0,1-19.22-19.22v-48A19.21,19.21,0,0,1,537.55,690H662.47A19.21,19.21,0,0,1,681.69,709.19Zm-28.83,0H547.16v48h105.7ZM463.32,690H338.39a19.22,19.22,0,0,0-19.22,19.22v67.27h31.72V754.35h99.94v22.11h31.71V709.19A19.22,19.22,0,0,0,463.32,690Zm-12.49,42.28H350.89v-22.1h99.94Zm-302,67.27H120V770.69h28.83Zm134.53-90.33v48a19.22,19.22,0,0,1-19.22,19.22H120V709.19A19.21,19.21,0,0,1,139.24,690H264.16A19.21,19.21,0,0,1,283.38,709.19Zm-28.83,0H148.85v48h105.7ZM148.83,391.11H120V160.48h28.83Zm57.66-173H177.66v173h28.83Zm57.65,57.66H235.32V391.11h28.82Zm57.66-67.27H293V391.11H321.8Zm57.66-48.05H350.63V391.11h28.83Zm57.66,48.05H408.29V391.11h28.83ZM494.77,247H466V391.11h28.82Zm57.66-40.36H523.6v184.5h28.83Zm57.66,107.62H581.26v76.88h28.83Zm57.66-38.43H638.92V391.11h28.83Zm57.66-38.44H696.58V391.11h28.83Zm57.65-38.44H754.23V391.11h28.83Zm57.66-38.44H811.89V391.11h28.83Zm57.66,67.27H869.55V391.11h28.83ZM956,275.8H927.21V391.11H956Zm57.65-67.27H984.86V391.11h28.83Zm57.66-48.05h-28.83V391.11h28.83Z" transform="translate(0 0)" style="fill: #0060ab"/>
    </g>
  </g>
</svg>
